{
  "source": "C:\\Users\\Peter\\Desktop\\stuff\\MIUN\\quantitative_research\\video_compression\\videos\\BVI-HD\\BVI-HD_CDVL_videos\\ORIG\\BallUnderWater_1920x1080_60fps.mp4",
  "output": "C:\\Users\\Peter\\Desktop\\stuff\\MIUN\\quantitative_research\\video_compression\\compressed_videos\\BVI-HD\\vp9\\4\\BallUnderWater_1920x1080_60fps_vp9.webm",
  "codec": "vp9",
  "ok": "Input #0, mov,mp4,m4a,3gp,3g2,mj2, from 'C:\\Users\\Peter\\Desktop\\stuff\\MIUN\\quantitative_research\\video_compression\\videos\\BVI-HD\\BVI-HD_CDVL_videos\\ORIG\\BallUnderWater_1920x1080_60fps.mp4':\n  Metadata:\n    major_brand     : isom\n    minor_version   : 512\n    compatible_brands: isomiso2avc1mp41\n    encoder         : Lavf54.28.101\n  Duration: 00:00:05.00, start: 0.000000, bitrate: 212030 kb/s\n  Stream #0:0[0x1](und): Video: h264 (High 4:4:4 Predictive) (avc1 / 0x31637661), yuv420p(progressive), 1920x1080, 212025 kb/s, 60 fps, 60 tbr, 60 tbn (default)\n    Metadata:\n      handler_name    : VideoHandler\n      vendor_id       : [0][0][0][0]\n[out#0/webm @ 000001a345d5a040] Codec AVOption b:a (set bitrate (in bits/s)) has not been used for any stream. The most likely reason is either wrong type (e.g. a video option with no video streams) or that it is a private option of some decoder which was not actually used for any stream.\nStream mapping:\n  Stream #0:0 -> #0:0 (h264 (native) -> vp9 (libvpx-vp9))\nPress [q] to stop, [?] for help\n[libvpx-vp9 @ 000001a345c14b00] v1.15.2-100-g40561f514\nOutput #0, webm, to 'C:\\Users\\Peter\\Desktop\\stuff\\MIUN\\quantitative_research\\video_compression\\compressed_videos\\BVI-HD\\vp9\\4\\BallUnderWater_1920x1080_60fps_vp9.webm':\n  Metadata:\n    major_brand     : isom\n    minor_version   : 512\n    compatible_brands: isomiso2avc1mp41\n    encoder         : Lavf62.3.100\n  Stream #0:0(und): Video: vp9, yuv420p(tv, progressive), 1920x1080, q=2-31, 4000 kb/s, 60 fps, 1k tbn (default)\n    Metadata:\n      encoder         : Lavc62.11.100 libvpx-vp9\n      handler_name    : VideoHandler\n      vendor_id       : [0][0][0][0]\n    Side data:\n      cpb: bitrate max/min/avg: 0/0/0 buffer size: 4000000 vbv_delay: N/A\nframe=    0 fps=0.0 q=0.0 size=       0KiB time=N/A bitrate=N/A speed=N/A elapsed=0:00:00.54    \nframe=    5 fps=4.5 q=47.0 size=       1KiB time=00:00:00.08 bitrate=  60.8kbits/s speed=0.0744x elapsed=0:00:01.12    \nframe=   10 fps=5.8 q=41.0 size=       1KiB time=00:00:00.16 bitrate=  30.4kbits/s speed=0.0964x elapsed=0:00:01.72    \nframe=   14 fps=6.2 q=40.0 size=       1KiB time=00:00:00.23 bitrate=  21.7kbits/s speed=0.103x elapsed=0:00:02.27    \nframe=   18 fps=6.5 q=40.0 size=       1KiB time=00:00:00.30 bitrate=  16.9kbits/s speed=0.108x elapsed=0:00:02.78    \nframe=   24 fps=7.2 q=40.0 size=       1KiB time=00:00:00.40 bitrate=  12.7kbits/s speed=0.12x elapsed=0:00:03.32    \nframe=   28 fps=7.2 q=41.0 size=       1KiB time=00:00:00.46 bitrate=  10.9kbits/s speed=0.12x elapsed=0:00:03.87    \nframe=   32 fps=7.2 q=44.0 size=       1KiB time=00:00:00.51 bitrate=   9.8kbits/s speed=0.116x elapsed=0:00:04.45    \nframe=   36 fps=7.0 q=45.0 size=       1KiB time=00:00:00.60 bitrate=   8.4kbits/s speed=0.117x elapsed=0:00:05.12    \nframe=   40 fps=7.1 q=44.0 size=       1KiB time=00:00:00.66 bitrate=   7.6kbits/s speed=0.118x elapsed=0:00:05.65    \nframe=   45 fps=7.3 q=44.0 size=       1KiB time=00:00:00.75 bitrate=   6.8kbits/s speed=0.121x elapsed=0:00:06.20    \nframe=   49 fps=7.2 q=31.0 size=       1KiB time=00:00:00.81 bitrate=   6.2kbits/s speed=0.121x elapsed=0:00:06.76    \nframe=   54 fps=7.4 q=42.0 size=       1KiB time=00:00:00.90 bitrate=   5.6kbits/s speed=0.123x elapsed=0:00:07.32    \nframe=   57 fps=7.3 q=41.0 size=       1KiB time=00:00:00.95 bitrate=   5.3kbits/s speed=0.121x elapsed=0:00:07.85    \nframe=   61 fps=7.3 q=28.0 size=       1KiB time=00:00:01.01 bitrate=   5.0kbits/s speed=0.121x elapsed=0:00:08.38    \nframe=   66 fps=7.4 q=38.0 size=       1KiB time=00:00:01.10 bitrate=   4.6kbits/s speed=0.124x elapsed=0:00:08.88    \nframe=   71 fps=7.5 q=39.0 size=       1KiB time=00:00:01.18 bitrate=   4.3kbits/s speed=0.125x elapsed=0:00:09.43    \nframe=   75 fps=7.5 q=40.0 size=       1KiB time=00:00:01.25 bitrate=   4.1kbits/s speed=0.125x elapsed=0:00:10.01    \nframe=   79 fps=7.5 q=26.0 size=       1KiB time=00:00:01.31 bitrate=   3.8kbits/s speed=0.124x elapsed=0:00:10.59    \nframe=   84 fps=7.5 q=36.0 size=       1KiB time=00:00:01.40 bitrate=   3.6kbits/s speed=0.125x elapsed=0:00:11.15    \nframe=   88 fps=7.5 q=39.0 size=       1KiB time=00:00:01.46 bitrate=   3.5kbits/s speed=0.125x elapsed=0:00:11.70    \nframe=   91 fps=7.4 q=26.0 size=       1KiB time=00:00:01.51 bitrate=   3.3kbits/s speed=0.124x elapsed=0:00:12.21    \nframe=   96 fps=7.5 q=43.0 size=       1KiB time=00:00:01.60 bitrate=   3.2kbits/s speed=0.125x elapsed=0:00:12.75    \nframe=  100 fps=7.5 q=42.0 size=       1KiB time=00:00:01.66 bitrate=   3.0kbits/s speed=0.125x elapsed=0:00:13.31    \nframe=  104 fps=7.5 q=38.0 size=       1KiB time=00:00:01.73 bitrate=   2.9kbits/s speed=0.125x elapsed=0:00:13.85    \nframe=  108 fps=7.5 q=38.0 size=       1KiB time=00:00:01.80 bitrate=   2.8kbits/s speed=0.125x elapsed=0:00:14.37    \nframe=  113 fps=7.6 q=39.0 size=       1KiB time=00:00:01.88 bitrate=   2.7kbits/s speed=0.126x elapsed=0:00:14.91    \nframe=  117 fps=7.6 q=42.0 size=       1KiB time=00:00:01.95 bitrate=   2.6kbits/s speed=0.126x elapsed=0:00:15.49    \nframe=  121 fps=7.6 q=29.0 size=       1KiB time=00:00:02.01 bitrate=   2.5kbits/s speed=0.126x elapsed=0:00:16.02    \nframe=  128 fps=7.7 q=39.0 size=       1KiB time=00:00:02.13 bitrate=   2.4kbits/s speed=0.129x elapsed=0:00:16.54    \nframe=  133 fps=7.8 q=42.0 size=     768KiB time=00:00:02.21 bitrate=2838.3kbits/s speed=0.13x elapsed=0:00:17.05    \nframe=  139 fps=7.9 q=41.0 size=     768KiB time=00:00:02.31 bitrate=2715.7kbits/s speed=0.132x elapsed=0:00:17.58    \nframe=  142 fps=7.8 q=40.0 size=     768KiB time=00:00:02.36 bitrate=2658.4kbits/s speed=0.13x elapsed=0:00:18.17    \nframe=  146 fps=7.8 q=38.0 size=     768KiB time=00:00:02.43 bitrate=2585.5kbits/s speed=0.13x elapsed=0:00:18.74    \nframe=  150 fps=7.8 q=39.0 size=     768KiB time=00:00:02.50 bitrate=2516.6kbits/s speed=0.13x elapsed=0:00:19.27    \nframe=  154 fps=7.8 q=40.0 size=     768KiB time=00:00:02.56 bitrate=2451.2kbits/s speed=0.129x elapsed=0:00:19.82    \nframe=  158 fps=7.7 q=40.0 size=     768KiB time=00:00:02.63 bitrate=2389.2kbits/s speed=0.129x elapsed=0:00:20.42    \nframe=  164 fps=7.8 q=38.0 size=     768KiB time=00:00:02.71 bitrate=2315.9kbits/s speed=0.13x elapsed=0:00:20.96    \nframe=  169 fps=7.8 q=37.0 size=     768KiB time=00:00:02.81 bitrate=2233.7kbits/s speed=0.13x elapsed=0:00:21.65    \nframe=  174 fps=7.8 q=36.0 size=     768KiB time=00:00:02.90 bitrate=2169.5kbits/s speed=0.13x elapsed=0:00:22.23    \nframe=  179 fps=7.9 q=35.0 size=     768KiB time=00:00:02.96 bitrate=2120.7kbits/s speed=0.13x elapsed=0:00:22.75    \nframe=  182 fps=7.8 q=22.0 size=     768KiB time=00:00:03.03 bitrate=2074.1kbits/s speed=0.13x elapsed=0:00:23.36    \nframe=  187 fps=7.8 q=37.0 size=     768KiB time=00:00:03.11 bitrate=2018.6kbits/s speed=0.13x elapsed=0:00:23.95    \nframe=  191 fps=7.8 q=38.0 size=     768KiB time=00:00:03.18 bitrate=1976.4kbits/s speed=0.13x elapsed=0:00:24.57    \nframe=  195 fps=7.8 q=36.0 size=     768KiB time=00:00:03.25 bitrate=1935.8kbits/s speed=0.129x elapsed=0:00:25.15    \nframe=  200 fps=7.8 q=38.0 size=     768KiB time=00:00:03.31 bitrate=1896.9kbits/s speed=0.129x elapsed=0:00:25.69    \nframe=  204 fps=7.7 q=37.0 size=     768KiB time=00:00:03.40 bitrate=1850.4kbits/s speed=0.129x elapsed=0:00:26.36    \nframe=  208 fps=7.7 q=40.0 size=     768KiB time=00:00:03.46 bitrate=1814.8kbits/s speed=0.129x elapsed=0:00:26.94    \nframe=  211 fps=7.7 q=43.0 size=     768KiB time=00:00:03.51 bitrate=1789.0kbits/s speed=0.128x elapsed=0:00:27.49    \nframe=  216 fps=7.7 q=45.0 size=     768KiB time=00:00:03.60 bitrate=1747.6kbits/s speed=0.128x elapsed=0:00:28.05    \nframe=  220 fps=7.7 q=44.0 size=     768KiB time=00:00:03.66 bitrate=1715.9kbits/s speed=0.128x elapsed=0:00:28.68    \nframe=  224 fps=7.6 q=31.0 size=     768KiB time=00:00:03.71 bitrate=1692.8kbits/s speed=0.127x elapsed=0:00:29.30    \nframe=  227 fps=7.6 q=39.0 size=     768KiB time=00:00:03.78 bitrate=1662.9kbits/s speed=0.127x elapsed=0:00:29.90    \nframe=  232 fps=7.6 q=39.0 size=     768KiB time=00:00:03.86 bitrate=1627.1kbits/s speed=0.127x elapsed=0:00:30.43    \nframe=  237 fps=7.6 q=41.0 size=     768KiB time=00:00:03.95 bitrate=1592.8kbits/s speed=0.127x elapsed=0:00:30.98    \nframe=  242 fps=7.7 q=28.0 size=     768KiB time=00:00:04.03 bitrate=1559.9kbits/s speed=0.128x elapsed=0:00:31.58    \nframe=  246 fps=7.6 q=41.0 size=     768KiB time=00:00:04.10 bitrate=1534.5kbits/s speed=0.127x elapsed=0:00:32.18    \nframe=  250 fps=7.6 q=39.0 size=     768KiB time=00:00:04.15 bitrate=1516.0kbits/s speed=0.127x elapsed=0:00:32.73    \nframe=  254 fps=7.6 q=39.0 size=     768KiB time=00:00:04.23 bitrate=1486.2kbits/s speed=0.127x elapsed=0:00:33.39    \nframe=  259 fps=7.6 q=39.0 size=    1536KiB time=00:00:04.31 bitrate=2915.0kbits/s speed=0.127x elapsed=0:00:33.90    \nframe=  264 fps=7.7 q=36.0 size=    1536KiB time=00:00:04.40 bitrate=2859.8kbits/s speed=0.128x elapsed=0:00:34.45    \nframe=  268 fps=7.7 q=37.0 size=    1536KiB time=00:00:04.46 bitrate=2817.1kbits/s speed=0.128x elapsed=0:00:35.01    \nframe=  272 fps=7.6 q=40.0 size=    1536KiB time=00:00:04.53 bitrate=2775.6kbits/s speed=0.127x elapsed=0:00:35.55    \nframe=  276 fps=7.6 q=44.0 size=    1536KiB time=00:00:04.58 bitrate=2745.4kbits/s speed=0.127x elapsed=0:00:36.09    \nframe=  276 fps=7.5 q=44.0 size=    1536KiB time=00:00:04.60 bitrate=2735.4kbits/s speed=0.125x elapsed=0:00:36.65    \nframe=  276 fps=7.4 q=44.0 size=    1536KiB time=00:00:04.60 bitrate=2735.4kbits/s speed=0.124x elapsed=0:00:37.19    \nframe=  276 fps=7.3 q=44.0 size=    1536KiB time=00:00:04.60 bitrate=2735.4kbits/s speed=0.122x elapsed=0:00:37.73    \nframe=  276 fps=7.2 q=44.0 size=    1536KiB time=00:00:04.60 bitrate=2735.4kbits/s speed=0.12x elapsed=0:00:38.30    \nframe=  276 fps=7.1 q=44.0 size=    1536KiB time=00:00:04.60 bitrate=2735.4kbits/s speed=0.118x elapsed=0:00:38.91    \n[out#0/webm @ 000001a345d5a040] video:1998KiB audio:0KiB subtitle:0KiB other streams:0KiB global headers:0KiB muxing overhead: 0.138834%\nframe=  300 fps=7.6 q=35.0 Lsize=    2001KiB time=00:00:05.00 bitrate=3278.7kbits/s speed=0.127x elapsed=0:00:39.30    \n",
  "seconds": 39.736300468444824,
  "probe_out": {}
}